# xmcd
#
# Track frame offsets:
#	150
#	15853
#	59168
#	85610
#	98773
#	154650
#	189040
#	214818
#	254418
#	287420
#	312473
#
# Disc length: 4494 seconds
#
# Revision: 0
# Processed by: cddbd v1.5.2PL0 Copyright (c) Steve Scherf et al.
# Submitted via: audiograbber 1.83.01
#
DISCID=88118c0b
DTITLE=Ορχήστρα - Ωδείον Ηρώδου αττικού 1988
DYEAR=1988
DGENRE=
TTITLE0=Τοπίο στην ομίχλη
TTITLE1=Ρόζα
TTITLE2=Περιπλάνηση
TTITLE3=Η τιμή της αγάπης
TTITLE4=Ταξίδι στα Κύθηρα
TTITLE5=Ο γλάρος
TTITLE6=Καλή πατρίδα σύντροφε
TTITLE7=Ο μελισσοκόμος
TTITLE8=Τοπίο στην ομίχλη
TTITLE9=Ο μελισσοκόμος
TTITLE10=Αυτοσχεδιασμός
EXTD=
EXTT0=
EXTT1=
EXTT2=
EXTT3=
EXTT4=
EXTT5=
EXTT6=
EXTT7=
EXTT8=
EXTT9=
EXTT10=
PLAYORDER=
